<svg width="100" height="100" viewBox="0 0 100 100" fill="none" xmlns="http://www.w3.org/2000/svg">
<g id="new_releases">
<mask id="mask0_19_8279" style="mask-type:alpha" maskUnits="userSpaceOnUse" x="0" y="0" width="100" height="100">
<rect id="Bounding box" width="100" height="100" fill="#D9D9D9"/>
</mask>
<g mask="url(#mask0_19_8279)">
<path id="new_releases_2" d="M35.8337 93.75L27.917 80.4167L12.917 77.0833L14.3753 61.6667L4.16699 50L14.3753 38.3333L12.917 22.9167L27.917 19.5833L35.8337 6.25L50.0003 12.2917L64.167 6.25L72.0837 19.5833L87.0837 22.9167L85.6253 38.3333L95.8337 50L85.6253 61.6667L87.0837 77.0833L72.0837 80.4167L64.167 93.75L50.0003 87.7083L35.8337 93.75ZM39.3753 83.125L50.0003 78.5417L60.8337 83.125L66.667 73.125L78.1253 70.4167L77.0837 58.75L84.792 50L77.0837 41.0417L78.1253 29.375L66.667 26.875L60.6253 16.875L50.0003 21.4583L39.167 16.875L33.3337 26.875L21.8753 29.375L22.917 41.0417L15.2087 50L22.917 58.75L21.8753 70.625L33.3337 73.125L39.3753 83.125ZM45.6253 64.7917L69.167 41.25L63.3337 35.2083L45.6253 52.9167L36.667 44.1667L30.8337 50L45.6253 64.7917Z" fill="#34D399"/>
</g>
</g>
</svg>
